<?xml version="1.0" encoding="utf-8"?>
<!DOCTYPE svg PUBLIC "-//W3C//DTD SVG 20010904//EN" "http://www.w3.org/TR/2001/REC-SVG-20010904/DTD/svg10.dtd">
<svg version="1.0" xmlns="http://www.w3.org/2000/svg" width="502pt" height="502pt" viewBox="0 0 502 502" style="" preserveAspectRatio="xMidYMid meet">
<g fill="#000000FF" stroke="#000000FF">
<path d="M 275.500 64.644 C 222.167 67.147 167.636 83.432 122.231 110.414 C 65.501 144.127 25.249 194.492 13.072 247.000 C 6.562 275.071 9.342 307.328 20.514 333.332 C 54.192 411.728 159.789 453.105 272.000 431.873 C 284.994 429.415 311.013 422.342 325.000 417.466 C 347.019 409.792 370.798 397.785 391.466 383.908 C 447.561 346.243 482.423 297.076 491.021 243.500 C 492.640 233.414 492.378 210.110 490.528 199.675 C 479.722 138.713 430.963 92.285 357.500 73.007 C 333.380 66.677 301.486 63.424 275.500 64.644 M 318.683 72.536 C 342.875 75.077 362.203 79.738 383.270 88.115 C 436.526 109.291 470.854 145.396 482.730 192.726 C 485.173 202.461 485.437 205.284 485.467 222.000 C 485.492 236.251 485.081 242.447 483.674 248.976 C 468.150 321.026 403.982 384.244 316.355 413.818 C 279.836 426.144 241.905 431.835 204.000 430.677 C 156.770 429.234 114.349 416.640 80.904 394.133 C 47.866 371.900 28.157 344.715 19.224 309.060 C 16.851 299.586 16.575 296.598 16.539 280.000 C 16.509 265.921 16.928 259.469 18.292 253.000 C 31.848 188.708 85.243 130.650 161.218 97.591 C 189.524 85.274 224.888 75.817 255.000 72.513 C 271.421 70.711 301.405 70.722 318.683 72.536 "/></g>
<g fill="#5CE1E6FF" stroke="#5CE1E6FF">
<path d="M 255.000 72.513 C 224.888 75.817 189.524 85.274 161.218 97.591 C 85.243 130.650 31.848 188.708 18.292 253.000 C 16.928 259.469 16.509 265.921 16.539 280.000 C 16.575 296.598 16.851 299.586 19.224 309.060 C 28.157 344.715 47.866 371.900 80.904 394.133 C 114.349 416.640 156.770 429.234 204.000 430.677 C 336.825 434.736 461.038 354.036 483.674 248.976 C 485.081 242.447 485.492 236.251 485.467 222.000 C 485.437 205.284 485.173 202.461 482.730 192.726 C 470.854 145.396 436.526 109.291 383.270 88.115 C 362.203 79.738 342.875 75.077 318.683 72.536 C 301.405 70.722 271.421 70.711 255.000 72.513 M 352.376 107.250 C 353.336 120.038 354.370 131.970 354.674 133.766 L 355.228 137.031 358.066 132.557 C 363.499 123.990 375.393 118.082 384.467 119.443 C 395.485 121.095 402.620 129.924 401.801 140.893 C 401.263 148.107 398.246 152.776 390.667 158.127 L 384.833 162.245 388.265 165.872 C 390.152 167.868 392.943 171.188 394.467 173.250 C 395.991 175.313 397.575 177.000 397.987 177.000 C 399.348 177.000 402.009 165.444 403.195 154.384 C 403.837 148.398 404.482 143.336 404.629 143.135 C 404.776 142.935 411.161 144.459 418.819 146.522 C 429.921 149.513 432.680 150.600 432.436 151.886 C 432.268 152.774 431.596 157.772 430.944 162.994 C 428.290 184.228 418.965 201.222 406.299 207.907 C 401.737 210.314 402.927 210.532 409.591 208.511 C 412.291 207.692 414.613 207.017 414.750 207.011 C 414.888 207.005 415.000 209.939 415.000 213.531 C 415.000 218.076 415.409 220.220 416.343 220.578 C 417.082 220.862 420.988 220.179 425.024 219.061 C 429.059 217.942 432.460 217.134 432.582 217.264 C 433.172 217.894 435.181 244.273 434.793 246.303 C 434.377 248.479 434.948 248.788 443.424 250.970 C 458.004 254.724 456.720 253.412 455.832 263.649 C 454.761 275.982 453.408 281.213 448.767 290.960 C 444.175 300.607 436.341 309.249 429.000 312.767 C 421.345 316.436 412.204 318.308 405.157 317.650 C 399.212 317.095 398.580 317.243 395.156 319.984 C 391.059 323.263 385.910 325.625 378.500 327.626 C 367.806 330.514 358.233 328.592 350.805 322.067 L 346.500 318.285 344.617 322.248 C 341.465 328.883 331.795 338.370 325.139 341.357 C 314.443 346.157 306.926 346.708 298.782 343.287 L 295.064 341.725 289.067 347.278 C 281.041 354.708 274.416 357.246 262.500 357.455 C 254.190 357.601 253.117 357.861 248.500 360.843 C 238.306 367.426 225.145 369.632 215.553 366.363 C 210.846 364.760 203.998 359.028 200.896 354.096 C 199.451 351.799 199.276 352.237 196.942 364.012 L 194.500 376.332 178.500 380.660 C 169.700 383.041 161.951 384.991 161.280 384.994 C 160.599 384.997 158.651 380.378 156.872 374.539 C 155.119 368.785 153.365 364.275 152.974 364.516 C 152.583 364.758 151.975 367.103 151.621 369.728 C 149.622 384.579 137.834 395.521 122.509 396.751 C 115.965 397.277 110.223 395.254 105.153 390.637 C 98.668 384.733 95.981 370.877 99.851 363.293 C 103.394 356.348 113.284 350.000 120.561 350.000 C 122.576 350.000 122.816 349.378 123.359 342.750 C 123.685 338.763 124.246 324.415 124.604 310.867 L 125.256 286.234 113.586 289.021 C 99.409 292.406 82.168 295.501 81.455 294.789 C 80.923 294.256 70.793 168.857 71.248 168.439 C 71.984 167.764 98.152 158.657 105.342 156.574 C 134.298 148.183 152.435 153.168 160.666 171.779 C 165.021 181.626 164.670 194.787 159.798 204.378 C 158.019 207.881 157.979 208.407 159.377 209.806 C 160.686 211.115 160.984 211.134 161.300 209.928 C 163.221 202.581 166.746 193.738 169.416 189.564 C 173.748 182.791 181.773 175.729 189.408 171.971 C 196.611 168.425 210.282 165.718 216.352 166.636 C 222.717 167.599 230.519 171.670 235.180 176.460 L 239.394 180.790 242.867 173.810 C 251.576 156.306 270.475 145.227 290.000 146.179 C 298.574 146.597 304.652 149.149 310.421 154.752 L 314.000 158.228 314.000 154.444 C 314.000 152.363 313.074 139.458 311.941 125.767 C 310.809 112.076 310.022 99.482 310.191 97.781 L 310.500 94.689 329.500 89.410 C 339.950 86.507 348.980 84.102 349.566 84.066 C 350.245 84.024 351.265 92.434 352.376 107.250 M 255.462 118.412 C 257.071 122.921 253.377 126.813 248.621 125.620 C 245.146 124.748 243.361 121.063 244.962 118.070 C 247.462 113.400 253.745 113.605 255.462 118.412 M 237.054 115.566 C 238.131 116.863 238.066 117.618 236.677 119.970 C 234.773 123.194 234.541 124.402 236.000 123.500 C 236.550 123.160 237.560 123.228 238.245 123.651 C 239.039 124.142 238.233 124.677 236.019 125.130 C 231.111 126.134 230.529 125.306 233.450 121.477 C 234.852 119.638 236.000 117.653 236.000 117.067 C 236.000 115.631 233.687 115.713 232.200 117.200 C 231.267 118.133 231.000 118.059 231.000 116.867 C 231.000 113.692 234.818 112.871 237.054 115.566 M 279.427 128.521 C 280.487 129.323 281.060 130.273 280.701 130.632 C 280.342 130.991 279.352 130.707 278.500 130.000 C 276.635 128.452 275.135 129.535 276.817 131.217 C 278.647 133.047 278.242 136.788 276.141 137.455 C 273.117 138.415 270.994 137.030 271.063 134.143 C 271.125 131.566 271.149 131.556 272.031 133.750 C 272.529 134.988 273.625 136.000 274.468 136.000 C 276.306 136.000 276.423 134.651 274.810 132.068 C 273.877 130.573 273.903 129.821 274.933 128.581 C 276.524 126.663 276.963 126.657 279.427 128.521 M 268.816 122.724 C 269.045 124.333 268.257 125.481 265.971 126.871 C 263.084 128.627 262.969 128.883 264.646 129.822 C 267.765 131.567 265.377 132.246 262.093 130.548 C 260.392 129.668 259.000 128.719 259.000 128.439 C 259.000 128.158 261.054 127.049 263.564 125.973 C 268.078 124.038 268.754 122.000 264.882 122.000 C 263.731 122.000 263.159 121.551 263.535 120.943 C 264.694 119.068 268.478 120.344 268.816 122.724 M 199.607 141.500 C 199.273 142.325 198.727 143.675 198.393 144.500 C 197.545 146.595 199.677 146.384 200.920 144.250 C 201.870 142.619 201.941 142.617 201.970 144.215 C 201.986 145.158 201.100 146.411 200.000 147.000 C 197.269 148.462 194.000 146.627 194.000 143.631 C 194.000 140.711 194.739 140.000 197.774 140.000 C 199.546 140.000 200.048 140.411 199.607 141.500 M 205.559 131.532 C 203.724 132.919 203.797 133.000 206.878 133.000 C 209.684 133.000 210.094 133.313 209.820 135.240 C 209.630 136.571 208.689 137.601 207.500 137.780 C 205.527 138.076 205.526 138.059 207.441 136.540 C 209.456 134.941 209.055 134.653 205.250 134.961 C 203.640 135.091 203.000 134.601 203.000 133.238 C 203.000 130.909 203.836 129.990 205.917 130.032 C 207.206 130.058 207.140 130.336 205.559 131.532 M 191.000 151.839 C 191.000 152.301 192.238 153.294 193.750 154.047 L 196.500 155.415 192.251 155.457 C 189.497 155.485 188.002 155.060 188.001 154.250 C 188.001 153.563 187.438 152.968 186.750 152.930 C 186.063 152.891 186.400 152.473 187.500 152.000 C 190.144 150.864 191.000 150.824 191.000 151.839 M 216.050 123.000 C 216.538 123.000 216.692 123.640 216.392 124.422 C 216.092 125.204 216.367 126.817 217.004 128.008 C 217.641 129.198 217.839 130.470 217.444 130.836 C 217.049 131.201 216.507 130.881 216.238 130.125 C 215.970 129.369 215.019 127.998 214.125 127.078 C 211.989 124.880 211.682 121.664 213.681 122.431 C 214.497 122.744 215.563 123.000 216.050 123.000 "/></g>
<g fill="#000000FF" stroke="#000000FF">
<path d="M 329.500 89.410 L 310.500 94.689 310.191 97.781 C 310.022 99.482 310.809 112.076 311.941 125.767 C 313.074 139.458 314.000 152.363 314.000 154.444 L 314.000 158.228 310.421 154.752 C 304.652 149.149 298.574 146.597 290.000 146.179 C 270.475 145.227 251.576 156.306 242.867 173.810 L 239.394 180.790 235.180 176.460 C 230.519 171.670 222.717 167.599 216.352 166.636 C 210.282 165.718 196.611 168.425 189.408 171.971 C 181.773 175.729 173.748 182.791 169.416 189.564 C 166.746 193.738 163.221 202.581 161.300 209.928 C 160.984 211.134 160.686 211.115 159.377 209.806 C 157.979 208.407 158.019 207.881 159.798 204.378 C 164.670 194.787 165.021 181.626 160.666 171.779 C 152.435 153.168 134.298 148.183 105.342 156.574 C 98.152 158.657 71.984 167.764 71.248 168.439 C 70.793 168.857 80.923 294.256 81.455 294.789 C 82.168 295.501 99.409 292.406 113.586 289.021 L 125.256 286.234 124.604 310.867 C 124.246 324.415 123.685 338.763 123.359 342.750 C 122.816 349.378 122.576 350.000 120.561 350.000 C 113.284 350.000 103.394 356.348 99.851 363.293 C 95.981 370.877 98.668 384.733 105.153 390.637 C 110.223 395.254 115.965 397.277 122.509 396.751 C 137.834 395.521 149.622 384.579 151.621 369.728 C 151.975 367.103 152.583 364.758 152.974 364.516 C 153.365 364.275 155.119 368.785 156.872 374.539 C 158.651 380.378 160.599 384.997 161.280 384.994 C 161.951 384.991 169.700 383.041 178.500 380.660 L 194.500 376.332 196.942 364.012 C 199.276 352.237 199.451 351.799 200.896 354.096 C 203.998 359.028 210.846 364.760 215.553 366.363 C 225.145 369.632 238.306 367.426 248.500 360.843 C 253.117 357.861 254.190 357.601 262.500 357.455 C 274.416 357.246 281.041 354.708 289.067 347.278 L 295.064 341.725 298.782 343.287 C 306.926 346.708 314.443 346.157 325.139 341.357 C 331.795 338.370 341.465 328.883 344.617 322.248 L 346.500 318.285 350.805 322.067 C 358.233 328.592 367.806 330.514 378.500 327.626 C 385.910 325.625 391.059 323.263 395.156 319.984 C 398.580 317.243 399.212 317.095 405.157 317.650 C 412.204 318.308 421.345 316.436 429.000 312.767 C 436.341 309.249 444.175 300.607 448.767 290.960 C 453.408 281.213 454.761 275.982 455.832 263.649 C 456.720 253.412 458.004 254.724 443.424 250.970 C 434.948 248.788 434.377 248.479 434.793 246.303 C 435.181 244.273 433.172 217.894 432.582 217.264 C 432.460 217.134 429.059 217.942 425.024 219.061 C 420.988 220.179 417.082 220.862 416.343 220.578 C 415.409 220.220 415.000 218.076 415.000 213.531 C 415.000 209.939 414.888 207.005 414.750 207.011 C 414.613 207.017 412.291 207.692 409.591 208.511 C 402.927 210.532 401.737 210.314 406.299 207.907 C 418.965 201.222 428.290 184.228 430.944 162.994 C 431.596 157.772 432.268 152.774 432.436 151.886 C 432.680 150.600 429.921 149.513 418.819 146.522 C 411.161 144.459 404.776 142.935 404.629 143.135 C 404.482 143.336 403.837 148.398 403.195 154.384 C 402.009 165.444 399.348 177.000 397.987 177.000 C 397.575 177.000 395.991 175.313 394.467 173.250 C 392.943 171.188 390.152 167.868 388.265 165.872 L 384.833 162.245 390.667 158.127 C 398.246 152.776 401.263 148.107 401.801 140.893 C 402.620 129.924 395.485 121.095 384.467 119.443 C 375.393 118.082 363.499 123.990 358.066 132.557 L 355.228 137.031 354.674 133.766 C 354.370 131.970 353.336 120.038 352.376 107.250 C 351.265 92.434 350.245 84.024 349.566 84.066 C 348.980 84.102 339.950 86.507 329.500 89.410 M 345.518 133.058 L 348.404 170.115 350.952 169.487 C 352.353 169.141 353.795 168.553 354.155 168.179 C 354.515 167.806 356.250 162.775 358.010 157.000 C 363.844 137.862 368.303 131.342 377.197 128.947 C 388.222 125.978 396.558 135.218 391.566 144.872 C 388.995 149.845 387.509 150.418 384.637 147.546 C 379.315 142.224 374.333 145.490 370.579 156.764 C 369.160 161.023 368.000 164.843 368.000 165.253 C 368.000 165.664 369.143 166.000 370.540 166.000 C 375.511 166.000 380.764 169.788 386.442 177.465 C 392.900 186.197 395.712 188.361 399.397 187.436 C 405.144 185.994 408.865 178.198 411.324 162.447 C 411.971 158.304 412.950 154.909 413.500 154.902 C 414.050 154.894 416.417 155.371 418.759 155.961 L 423.018 157.033 422.406 161.267 C 422.070 163.595 421.166 168.340 420.397 171.812 C 415.922 192.030 401.904 204.827 385.356 203.800 C 377.772 203.329 372.915 200.262 366.891 192.139 C 360.015 182.866 357.945 180.998 354.563 181.015 C 349.318 181.042 349.273 181.227 350.550 197.500 C 351.198 205.750 351.616 212.635 351.480 212.800 C 351.097 213.265 330.660 218.938 329.250 218.971 C 328.431 218.990 328.000 217.449 328.000 214.500 C 328.000 212.025 327.757 210.000 327.460 210.000 C 327.163 210.000 325.231 210.862 323.167 211.915 C 321.103 212.968 316.958 214.489 313.957 215.294 C 309.677 216.443 307.279 217.957 302.839 222.314 C 296.450 228.583 291.650 231.335 283.320 233.505 C 273.195 236.142 264.937 234.971 258.120 229.931 L 255.165 227.746 252.251 229.821 C 248.895 232.211 241.092 235.414 236.000 236.493 C 233.709 236.978 230.771 238.989 227.494 242.316 L 222.488 247.398 225.827 289.949 C 227.664 313.352 229.597 334.189 230.123 336.253 C 230.654 338.339 232.129 340.694 233.445 341.556 C 235.510 342.909 236.235 342.929 239.155 341.708 C 244.727 339.379 245.397 337.903 243.416 332.321 C 241.176 326.012 240.398 310.315 241.966 303.101 C 245.236 288.066 255.739 274.486 267.503 270.085 C 273.607 267.801 276.870 267.529 281.665 268.904 C 284.271 269.651 284.895 269.511 285.265 268.095 C 285.587 266.863 288.706 265.589 296.385 263.554 C 302.255 261.998 307.383 261.047 307.779 261.441 C 308.176 261.835 309.447 273.802 310.605 288.033 C 312.970 317.103 313.511 319.000 319.434 319.000 C 321.982 319.000 323.458 318.245 325.385 315.954 C 328.092 312.738 331.285 303.612 332.412 295.869 L 333.087 291.239 329.543 290.574 L 326.000 289.909 326.000 276.080 C 326.000 258.447 325.596 256.404 321.856 255.100 C 315.973 253.049 314.983 244.371 320.017 238.981 C 322.197 236.648 323.659 236.000 326.746 236.000 C 331.126 236.000 333.328 237.774 335.038 242.680 C 336.071 245.641 336.369 245.766 345.301 246.958 C 360.416 248.977 363.890 249.965 367.728 253.334 C 369.691 255.058 371.944 258.016 372.735 259.907 C 374.391 263.871 374.521 273.096 373.030 280.886 C 371.026 291.365 372.255 299.996 376.039 302.021 C 379.429 303.835 383.832 303.124 387.003 300.250 L 390.037 297.500 388.595 290.500 C 387.801 286.650 386.877 279.000 386.541 273.500 C 386.206 268.000 385.676 260.901 385.364 257.724 L 384.798 251.947 381.399 252.585 L 378.000 253.223 378.000 247.191 C 378.000 241.269 378.056 241.147 381.076 240.483 L 384.153 239.808 383.468 232.505 C 382.851 225.921 382.967 225.149 384.642 224.651 C 391.818 222.517 405.076 219.000 405.946 219.000 C 406.584 219.000 407.000 221.760 407.000 226.000 C 407.000 229.850 407.307 233.000 407.682 233.000 C 408.057 233.000 411.902 232.045 416.227 230.878 C 420.552 229.711 424.238 228.924 424.420 229.128 C 424.601 229.333 425.054 232.013 425.426 235.085 L 426.103 240.670 417.551 242.929 L 409.000 245.188 409.012 249.344 C 409.036 257.450 411.917 285.977 412.896 287.806 C 415.422 292.526 420.625 293.602 425.492 290.413 C 430.234 287.306 435.943 272.510 435.985 263.219 C 436.003 259.219 437.495 258.518 442.895 259.972 C 447.685 261.261 447.871 262.224 445.501 273.412 C 442.239 288.811 433.986 300.467 422.734 305.566 C 414.985 309.078 406.087 309.899 400.604 307.608 C 396.871 306.048 396.735 306.067 394.909 308.389 C 389.525 315.233 374.605 320.940 365.644 319.582 C 359.092 318.589 352.778 312.858 350.422 305.766 C 348.713 300.619 348.751 293.521 350.610 271.000 C 351.403 261.387 349.942 259.166 341.999 257.911 C 339.034 257.442 336.584 257.158 336.554 257.279 C 336.524 257.401 336.644 264.318 336.821 272.652 L 337.141 287.804 340.571 288.447 C 342.457 288.801 344.000 289.461 344.000 289.914 C 344.000 293.359 340.610 308.919 338.925 313.207 C 334.239 325.134 324.677 333.676 313.387 336.022 C 306.400 337.474 300.665 335.497 296.140 330.074 L 292.780 326.048 290.330 330.965 C 283.605 344.461 267.777 352.276 256.616 347.613 L 252.747 345.996 248.743 349.613 C 240.569 356.998 227.005 360.807 218.672 358.057 C 213.755 356.434 208.429 350.182 206.534 343.810 C 204.989 338.613 202.000 311.932 202.000 303.339 C 202.000 300.953 201.663 299.003 201.250 299.007 C 200.838 299.010 197.477 314.612 193.783 333.677 C 190.088 352.743 186.596 368.631 186.023 368.986 C 184.093 370.178 166.952 374.285 166.363 373.696 C 166.042 373.376 161.380 358.576 156.003 340.808 L 146.226 308.502 145.639 319.001 C 145.316 324.776 144.658 338.619 144.176 349.765 C 143.330 369.354 143.204 370.221 140.385 375.732 C 135.037 386.190 121.965 391.187 114.000 385.819 C 106.822 380.981 104.736 370.845 109.703 364.941 C 112.770 361.296 117.510 359.000 121.968 359.000 C 124.605 359.000 125.002 359.358 125.015 361.750 C 125.024 363.263 125.415 365.107 125.885 365.848 C 127.224 367.961 130.283 366.775 131.068 363.839 C 131.459 362.375 132.279 345.275 132.889 325.839 C 133.500 306.402 134.253 286.728 134.563 282.117 C 135.084 274.356 134.991 273.772 133.313 274.253 C 132.316 274.539 127.450 275.967 122.500 277.428 C 114.053 279.920 89.887 285.221 89.363 284.696 C 89.003 284.337 80.995 182.064 80.998 177.869 L 81.000 174.237 90.949 170.664 C 109.419 164.030 119.716 161.594 129.000 161.664 C 134.369 161.705 138.793 162.299 141.010 163.277 C 149.855 167.181 154.459 175.301 154.459 187.000 C 154.459 196.025 152.236 201.582 146.240 207.546 L 142.173 211.592 147.038 213.320 C 153.478 215.607 157.518 219.153 160.780 225.380 C 163.037 229.689 163.462 231.767 163.466 238.500 C 163.471 248.651 161.119 254.104 153.547 261.497 L 148.030 266.883 153.114 265.374 C 155.910 264.543 158.356 264.022 158.549 264.216 C 158.743 264.409 163.754 280.608 169.687 300.214 C 175.619 319.820 180.596 335.737 180.748 335.586 C 180.899 335.434 184.384 318.478 188.493 297.905 C 192.601 277.332 196.186 259.562 196.459 258.416 C 196.887 256.616 196.272 256.176 191.936 255.175 C 182.272 252.944 175.863 246.458 171.994 234.994 C 170.155 229.545 169.860 226.799 170.161 217.928 C 170.495 208.087 170.778 206.833 174.262 199.784 C 178.995 190.209 187.307 182.154 195.715 178.998 C 212.615 172.654 224.625 175.358 232.431 187.263 C 237.664 195.245 239.332 202.419 238.790 214.612 L 238.334 224.864 243.096 222.451 C 245.716 221.124 248.132 219.596 248.466 219.055 C 248.800 218.514 248.333 215.243 247.429 211.786 C 245.232 203.392 245.922 189.588 248.910 182.136 C 255.325 166.139 268.787 156.262 285.580 155.233 C 297.928 154.476 306.376 159.818 311.635 171.709 C 315.027 179.379 316.435 189.743 315.109 197.274 C 314.518 200.626 314.222 203.555 314.450 203.783 C 314.991 204.325 324.793 198.988 325.839 197.582 C 326.282 196.987 324.939 175.575 322.855 150.000 C 320.770 124.425 319.200 103.050 319.366 102.500 C 319.679 101.460 336.950 96.233 340.566 96.085 C 342.569 96.003 342.720 97.133 345.518 133.058 M 320.000 225.367 C 320.000 227.009 318.811 228.521 316.121 230.301 C 311.298 233.493 308.000 239.985 308.000 246.288 L 308.000 250.944 302.750 252.428 C 286.328 257.071 278.871 258.835 273.546 259.337 C 259.981 260.615 245.968 271.344 238.582 286.109 L 235.235 292.798 234.658 287.149 C 234.341 284.042 233.545 274.620 232.890 266.212 L 231.699 250.924 234.536 247.962 C 236.097 246.333 238.077 244.985 238.937 244.966 C 239.797 244.947 243.789 243.634 247.809 242.048 L 255.118 239.165 259.466 241.088 C 273.312 247.213 295.221 242.159 308.020 229.887 C 312.635 225.463 315.931 223.466 319.250 223.086 C 319.663 223.039 320.000 224.065 320.000 225.367 M 373.986 210.493 C 375.840 211.451 380.539 212.520 384.428 212.868 L 391.500 213.500 382.500 215.816 L 373.500 218.132 373.825 225.442 L 374.149 232.752 370.964 233.863 C 368.048 234.879 367.814 235.278 368.198 238.567 C 368.596 241.982 368.491 242.130 366.059 241.562 C 359.545 240.039 348.243 238.066 345.849 238.035 C 343.899 238.009 342.653 237.076 341.138 234.509 C 340.005 232.589 337.683 230.170 335.978 229.133 L 332.878 227.247 335.689 226.568 C 337.235 226.195 343.601 224.497 349.836 222.796 L 361.172 219.703 360.458 209.102 L 359.743 198.500 365.180 203.625 C 368.170 206.444 372.133 209.534 373.986 210.493 M 176.553 257.500 C 179.592 259.975 182.398 262.007 182.789 262.015 C 183.180 262.024 184.098 262.410 184.830 262.874 C 185.911 263.559 185.557 266.780 182.935 280.108 C 181.162 289.124 179.411 296.843 179.044 297.262 C 178.677 297.681 175.805 289.509 172.661 279.103 C 166.950 260.194 166.947 260.179 168.658 256.591 C 169.600 254.616 170.518 253.000 170.699 253.000 C 170.880 253.000 173.514 255.025 176.553 257.500 M 427.031 263.202 C 425.763 271.872 422.883 281.206 421.314 281.729 C 420.676 281.941 420.027 278.318 419.620 272.287 C 419.258 266.904 418.698 260.177 418.376 257.338 L 417.791 252.175 422.646 250.796 L 427.500 249.416 427.831 252.442 C 428.013 254.106 427.653 258.948 427.031 263.202 M 322.930 298.750 C 322.786 300.282 321.138 303.457 321.070 302.332 C 321.032 301.689 320.727 300.452 320.393 299.582 C 319.995 298.544 320.338 298.000 321.393 298.000 C 322.277 298.000 322.968 298.338 322.930 298.750 "/></g>
<g fill="#5CE1E6FF" stroke="#5CE1E6FF">
<path d="M 315.957 223.944 C 314.558 224.369 310.986 227.043 308.020 229.887 C 295.221 242.159 273.312 247.213 259.466 241.088 L 255.118 239.165 247.809 242.048 C 243.789 243.634 239.797 244.947 238.937 244.966 C 238.077 244.985 236.097 246.333 234.536 247.962 L 231.699 250.924 232.890 266.212 C 233.545 274.620 234.341 284.042 234.658 287.149 L 235.235 292.798 238.582 286.109 C 245.968 271.344 259.981 260.615 273.546 259.337 C 278.871 258.835 286.328 257.071 302.750 252.428 L 308.000 250.944 308.000 246.288 C 308.000 239.985 311.298 233.493 316.121 230.301 C 318.811 228.521 320.000 227.009 320.000 225.367 C 320.000 222.827 319.831 222.768 315.957 223.944 "/></g>
<g fill="#000000FF" stroke="#000000FF">
<path d="M 114.750 226.662 C 110.639 227.921 110.000 228.474 110.000 230.775 C 110.000 234.651 111.996 260.951 112.574 264.686 L 113.067 267.872 118.283 266.326 C 128.771 263.217 134.480 258.884 137.447 251.782 C 140.810 243.731 138.413 231.830 132.491 227.171 C 129.209 224.590 122.180 224.388 114.750 226.662 M 128.603 236.516 C 129.807 238.355 130.117 240.426 129.754 244.204 C 129.334 248.581 128.688 249.898 125.549 252.775 C 123.509 254.644 121.621 255.955 121.354 255.687 C 120.594 254.928 118.963 235.868 119.573 234.881 C 119.873 234.396 121.656 234.000 123.536 234.000 C 126.084 234.000 127.373 234.640 128.603 236.516 "/></g>
<g fill="#000000FF" stroke="#000000FF">
<path d="M 272.947 284.935 C 267.209 290.967 265.500 297.178 265.500 312.000 C 265.500 322.794 265.780 324.978 267.549 328.000 C 271.107 334.077 277.356 333.143 281.006 325.988 C 284.407 319.321 286.204 309.309 286.357 296.175 C 286.486 285.036 286.313 283.712 284.559 282.425 C 280.981 279.799 277.018 280.656 272.947 284.935 M 275.421 314.378 C 274.087 318.367 274.053 318.193 274.371 308.966 C 274.569 303.209 275.254 298.454 276.099 296.966 C 277.374 294.723 277.468 295.211 277.149 302.378 C 276.956 306.711 276.179 312.111 275.421 314.378 "/></g>
<g fill="#000000FF" stroke="#000000FF">
<path d="M 199.776 190.750 C 194.436 196.840 192.141 208.975 193.909 221.766 C 196.087 237.522 201.552 245.489 207.505 241.589 C 208.927 240.657 210.570 238.843 211.156 237.557 C 212.032 235.634 211.847 234.847 210.110 233.110 C 206.807 229.807 207.337 225.362 211.500 221.435 C 214.471 218.633 215.000 217.468 215.000 213.727 C 215.000 208.239 211.667 194.948 209.437 191.545 C 207.424 188.473 202.153 188.039 199.776 190.750 M 205.428 208.166 C 206.015 212.594 205.819 213.625 204.056 215.388 L 202.000 217.444 202.000 214.862 C 202.000 210.352 203.244 203.000 204.007 203.000 C 204.411 203.000 205.051 205.325 205.428 208.166 "/></g>
<g fill="#000000FF" stroke="#000000FF">
<path d="M 275.634 170.639 C 271.853 174.420 270.000 181.765 270.000 192.971 C 270.000 206.476 273.389 218.333 278.095 221.292 C 280.619 222.878 284.893 221.225 286.931 217.873 C 288.757 214.871 288.757 214.757 286.925 212.925 C 282.753 208.753 283.743 201.986 288.866 199.651 C 291.169 198.602 291.235 198.275 290.703 190.531 C 289.411 171.735 283.000 163.272 275.634 170.639 M 281.900 190.128 C 282.002 193.834 279.781 197.073 278.528 195.046 C 277.870 193.981 278.679 185.754 279.712 183.000 C 280.465 180.996 281.766 185.234 281.900 190.128 "/></g>
<g fill="#5CE1E6FF" stroke="#5CE1E6FF">
<path d="M 360.458 209.102 L 361.172 219.703 349.836 222.796 C 343.601 224.497 337.235 226.195 335.689 226.568 L 332.878 227.247 335.978 229.133 C 337.683 230.170 340.005 232.589 341.138 234.509 C 342.653 237.076 343.899 238.009 345.849 238.035 C 348.243 238.066 359.545 240.039 366.059 241.562 C 368.491 242.130 368.596 241.982 368.198 238.567 C 367.814 235.278 368.048 234.879 370.964 233.863 L 374.149 232.752 373.825 225.442 L 373.500 218.132 382.500 215.816 L 391.500 213.500 384.428 212.868 C 375.939 212.109 372.352 210.386 365.180 203.625 L 359.743 198.500 360.458 209.102 "/></g>
<g fill="#000000FF" stroke="#000000FF">
<path d="M 109.250 177.119 C 106.612 177.880 105.999 178.570 105.994 180.779 C 105.978 187.313 108.336 214.574 108.979 215.294 C 109.369 215.731 112.144 215.170 115.146 214.047 C 124.487 210.552 130.006 202.834 129.994 193.282 C 129.987 186.621 128.428 181.701 125.351 178.623 C 123.169 176.441 121.867 176.015 117.614 176.090 C 114.801 176.140 111.038 176.603 109.250 177.119 M 120.025 186.565 C 121.619 190.759 121.160 197.238 119.040 200.453 C 116.690 204.019 116.390 203.366 115.547 192.844 C 114.945 185.335 115.240 184.388 118.275 184.079 C 118.701 184.036 119.488 185.154 120.025 186.565 "/></g>
<g fill="#5CE1E6FF" stroke="#5CE1E6FF">
<path d="M 168.658 256.591 C 166.947 260.179 166.950 260.194 172.661 279.103 C 175.805 289.509 178.677 297.681 179.044 297.262 C 179.411 296.843 181.162 289.124 182.935 280.108 C 185.557 266.780 185.911 263.559 184.830 262.874 C 184.098 262.410 183.180 262.024 182.789 262.015 C 182.398 262.007 179.592 259.975 176.553 257.500 C 173.514 255.025 170.880 253.000 170.699 253.000 C 170.518 253.000 169.600 254.616 168.658 256.591 "/></g>
<g fill="#5CE1E6FF" stroke="#5CE1E6FF">
<path d="M 422.646 250.796 L 417.791 252.175 418.376 257.338 C 418.698 260.177 419.258 266.904 419.620 272.287 C 420.027 278.318 420.676 281.941 421.314 281.729 C 423.870 280.877 428.611 259.574 427.831 252.442 L 427.500 249.416 422.646 250.796 "/></g>
<g fill="#5CE1E6FF" stroke="#5CE1E6FF">
<path d="M 119.573 234.881 C 118.963 235.868 120.594 254.928 121.354 255.687 C 121.621 255.955 123.509 254.644 125.549 252.775 C 128.688 249.898 129.334 248.581 129.754 244.204 C 130.414 237.341 128.378 234.000 123.536 234.000 C 121.656 234.000 119.873 234.396 119.573 234.881 "/></g>
<g fill="#000000FF" stroke="#000000FF">
<path d="M 248.315 115.074 C 243.005 117.051 243.214 124.263 248.621 125.620 C 253.377 126.813 257.071 122.921 255.462 118.412 C 254.343 115.280 251.424 113.916 248.315 115.074 M 252.954 117.445 C 254.865 119.747 253.844 123.451 251.195 123.827 C 246.772 124.454 244.541 120.602 247.571 117.571 C 249.530 115.613 251.397 115.569 252.954 117.445 "/></g>
<g fill="#5CE1E6FF" stroke="#5CE1E6FF">
<path d="M 116.217 184.673 C 115.252 185.061 115.086 187.087 115.547 192.844 C 116.390 203.366 116.690 204.019 119.040 200.453 C 121.160 197.238 121.619 190.759 120.025 186.565 C 119.041 183.977 118.553 183.735 116.217 184.673 "/></g>
<g fill="#5CE1E6FF" stroke="#5CE1E6FF">
<path d="M 276.099 296.966 C 275.254 298.454 274.569 303.209 274.371 308.966 C 274.053 318.193 274.087 318.367 275.421 314.378 C 276.179 312.111 276.956 306.711 277.149 302.378 C 277.468 295.211 277.374 294.723 276.099 296.966 "/></g>
<g fill="#5CE1E6FF" stroke="#5CE1E6FF">
<path d="M 247.571 117.571 C 245.613 119.530 245.569 121.397 247.445 122.954 C 249.747 124.865 253.451 123.844 253.827 121.195 C 254.454 116.772 250.602 114.541 247.571 117.571 "/></g>
<g fill="#000000FF" stroke="#000000FF">
<path d="M 231.667 114.667 C 231.300 115.033 231.000 116.023 231.000 116.867 C 231.000 118.059 231.267 118.133 232.200 117.200 C 233.687 115.713 236.000 115.631 236.000 117.067 C 236.000 117.653 234.852 119.638 233.450 121.477 C 230.529 125.306 231.111 126.134 236.019 125.130 C 238.233 124.677 239.039 124.142 238.245 123.651 C 237.560 123.228 236.550 123.160 236.000 123.500 C 234.541 124.402 234.773 123.194 236.677 119.970 C 238.066 117.618 238.131 116.863 237.054 115.566 C 235.721 113.959 232.853 113.480 231.667 114.667 "/></g>
<g fill="#000000FF" stroke="#000000FF">
<path d="M 274.933 128.581 C 273.903 129.821 273.877 130.573 274.810 132.068 C 276.423 134.651 276.306 136.000 274.468 136.000 C 273.625 136.000 272.529 134.988 272.031 133.750 C 271.149 131.556 271.125 131.566 271.063 134.143 C 270.994 137.030 273.117 138.415 276.141 137.455 C 278.242 136.788 278.647 133.047 276.817 131.217 C 275.135 129.535 276.635 128.452 278.500 130.000 C 279.352 130.707 280.342 130.991 280.701 130.632 C 281.318 130.015 278.218 127.100 276.872 127.032 C 276.527 127.014 275.654 127.712 274.933 128.581 "/></g>
<g fill="#000000FF" stroke="#000000FF">
<path d="M 263.535 120.943 C 263.159 121.551 263.731 122.000 264.882 122.000 C 268.754 122.000 268.078 124.038 263.564 125.973 C 261.054 127.049 259.000 128.158 259.000 128.439 C 259.000 128.719 260.392 129.668 262.093 130.548 C 265.377 132.246 267.765 131.567 264.646 129.822 C 262.969 128.883 263.084 128.627 265.971 126.871 C 268.257 125.481 269.045 124.333 268.816 122.724 C 268.478 120.344 264.694 119.068 263.535 120.943 "/></g>
<g fill="#000000FF" stroke="#000000FF">
<path d="M 194.667 140.667 C 193.262 142.071 194.084 145.975 196.000 147.000 C 198.503 148.340 202.014 146.702 201.970 144.215 C 201.941 142.617 201.870 142.619 200.920 144.250 C 199.677 146.384 197.545 146.595 198.393 144.500 C 198.727 143.675 199.273 142.325 199.607 141.500 C 200.048 140.411 199.546 140.000 197.774 140.000 C 196.431 140.000 195.033 140.300 194.667 140.667 M 197.985 143.028 C 197.388 144.143 196.492 144.804 195.994 144.496 C 194.686 143.688 195.954 141.000 197.642 141.000 C 198.767 141.000 198.840 141.431 197.985 143.028 "/></g>
<g fill="#5CE1E6FF" stroke="#5CE1E6FF">
<path d="M 279.712 183.000 C 278.679 185.754 277.870 193.981 278.528 195.046 C 279.781 197.073 282.002 193.834 281.900 190.128 C 281.766 185.234 280.465 180.996 279.712 183.000 "/></g>
<g fill="#5CE1E6FF" stroke="#5CE1E6FF">
<path d="M 202.636 207.640 C 202.286 210.191 202.000 213.441 202.000 214.862 L 202.000 217.444 204.056 215.388 C 205.819 213.625 206.015 212.594 205.428 208.166 C 205.051 205.325 204.411 203.000 204.007 203.000 C 203.603 203.000 202.986 205.088 202.636 207.640 "/></g>
<g fill="#000000FF" stroke="#000000FF">
<path d="M 203.667 130.667 C 203.300 131.033 203.000 132.191 203.000 133.238 C 203.000 134.601 203.640 135.091 205.250 134.961 C 209.055 134.653 209.456 134.941 207.441 136.540 C 205.526 138.059 205.527 138.076 207.500 137.780 C 208.689 137.601 209.630 136.571 209.820 135.240 C 210.094 133.313 209.684 133.000 206.878 133.000 C 203.797 133.000 203.724 132.919 205.559 131.532 C 207.140 130.336 207.206 130.058 205.917 130.032 C 205.046 130.014 204.033 130.300 203.667 130.667 "/></g>
<g fill="#000000FF" stroke="#000000FF">
<path d="M 187.500 152.000 C 186.400 152.473 186.063 152.891 186.750 152.930 C 187.438 152.968 188.001 153.563 188.001 154.250 C 188.002 155.060 189.497 155.485 192.251 155.457 L 196.500 155.415 193.750 154.047 C 192.238 153.294 191.000 152.301 191.000 151.839 C 191.000 150.824 190.144 150.864 187.500 152.000 "/></g>
<g fill="#000000FF" stroke="#000000FF">
<path d="M 212.350 123.634 C 212.432 124.609 213.231 126.158 214.125 127.078 C 215.019 127.998 215.970 129.369 216.238 130.125 C 216.507 130.881 217.049 131.201 217.444 130.836 C 217.839 130.470 217.641 129.198 217.004 128.008 C 216.367 126.817 216.092 125.204 216.392 124.422 C 216.692 123.640 216.538 123.000 216.050 123.000 C 215.563 123.000 214.497 122.744 213.681 122.431 C 212.691 122.051 212.249 122.450 212.350 123.634 "/></g>
<g fill="#D6D3CDFF" stroke="#D6D3CDFF">
<path d="M 68.500 151.477 L 58.500 161.536 68.500 151.477 L 78.500 141.418 68.500 151.477 "/></g>
<g fill="#D6D3CDFF" stroke="#D6D3CDFF">
<path d="M 433.500 350.472 L 425.500 358.542 433.500 350.472 L 441.500 342.402 433.500 350.472 "/></g>
<g fill="#D6D3CDFF" stroke="#D6D3CDFF">
<path d="M 291.193 192.390 C 291.054 196.624 290.508 198.677 289.250 199.695 C 287.677 200.967 287.732 200.997 289.796 199.995 C 291.889 198.979 292.061 198.331 291.739 192.690 L 291.385 186.500 291.193 192.390 "/></g>
<g fill="#D6D3CDFF" stroke="#D6D3CDFF">
<path d="M 144.538 208.151 C 141.148 211.463 140.118 213.000 141.288 213.000 C 142.229 213.000 142.888 212.610 142.750 212.133 C 142.613 211.655 144.075 209.473 146.000 207.284 C 148.716 204.195 148.388 204.389 144.538 208.151 "/></g>
<g fill="#D6D3CDFF" stroke="#D6D3CDFF">
<path d="M 145.116 309.000 C 145.168 313.154 145.239 313.276 146.044 310.585 C 146.557 308.867 146.535 307.020 145.988 306.085 C 145.325 304.951 145.077 305.781 145.116 309.000 "/></g>
<g fill="#D6D3CDFF" stroke="#D6D3CDFF">
<path d="M 378.381 248.500 C 378.474 251.632 378.880 252.482 380.250 252.417 C 381.213 252.371 381.352 252.258 380.560 252.167 C 379.683 252.065 378.953 250.535 378.691 248.250 L 378.262 244.500 378.381 248.500 "/></g>
<g fill="#5CE1E6FF" stroke="#5CE1E6FF">
<path d="M 320.393 299.582 C 320.727 300.452 321.032 301.689 321.070 302.332 C 321.109 302.974 321.527 302.600 322.000 301.500 C 323.267 298.551 323.171 298.000 321.393 298.000 C 320.338 298.000 319.995 298.544 320.393 299.582 "/></g>
<g fill="#5CE1E6FF" stroke="#5CE1E6FF">
<path d="M 195.651 142.468 C 194.759 144.792 196.781 145.277 197.985 143.028 C 198.840 141.431 198.767 141.000 197.642 141.000 C 196.857 141.000 195.960 141.661 195.651 142.468 "/></g>
<g fill="#D6D3CDFF" stroke="#D6D3CDFF">
<path d="M 51.500 379.500 L 56.000 384.000 51.500 379.500 L 47.000 375.000 51.500 379.500 "/></g>
<g fill="#D6D3CDFF" stroke="#D6D3CDFF">
<path d="M 121.750 359.720 C 123.075 359.963 124.073 360.928 124.179 362.066 C 124.292 363.292 124.383 363.176 124.429 361.750 C 124.483 360.022 123.920 359.478 122.000 359.404 C 119.825 359.320 119.792 359.361 121.750 359.720 "/></g>
<g fill="#D6D3CDFF" stroke="#D6D3CDFF">
<path d="M 255.500 278.449 L 251.500 282.559 255.500 278.449 L 259.500 274.338 255.500 278.449 "/></g>
<g fill="#D6D3CDFF" stroke="#D6D3CDFF">
<path d="M 328.381 214.500 C 328.456 217.030 328.959 218.463 329.750 218.400 C 330.438 218.345 330.577 218.233 330.060 218.150 C 329.544 218.068 328.927 216.313 328.691 214.250 L 328.262 210.500 328.381 214.500 "/></g>
<g fill="#D6D3CDFF" stroke="#D6D3CDFF">
<path d="M 147.585 169.000 C 149.709 171.475 151.580 173.379 151.743 173.232 C 151.905 173.085 150.168 171.060 147.881 168.732 L 143.723 164.500 147.585 169.000 "/></g>
<g fill="#D6D3CDFF" stroke="#D6D3CDFF">
<path d="M 180.000 248.000 L 184.000 252.000 180.000 248.000 L 176.000 244.000 180.000 248.000 "/></g>
<g fill="#D6D3CDFF" stroke="#D6D3CDFF">
<path d="M 134.113 228.452 C 135.001 229.578 136.225 231.400 136.833 232.500 C 137.441 233.600 137.953 233.945 137.970 233.266 C 137.986 232.587 136.763 230.765 135.250 229.218 C 133.738 227.670 133.226 227.325 134.113 228.452 "/></g>
<g fill="#D6D3CDFF" stroke="#D6D3CDFF">
<path d="M 183.000 187.942 L 179.500 191.562 183.000 187.942 L 186.500 184.323 183.000 187.942 "/></g>
<g fill="#D6D3CDFF" stroke="#D6D3CDFF">
<path d="M 450.000 122.000 L 454.000 126.000 450.000 122.000 L 446.000 118.000 450.000 122.000 "/></g>
<g fill="#D6D3CDFF" stroke="#D6D3CDFF">
<path d="M 432.500 298.435 L 429.500 301.564 432.500 298.435 L 435.500 295.305 432.500 298.435 "/></g>
<g fill="#D6D3CDFF" stroke="#D6D3CDFF">
<path d="M 200.720 294.332 C 199.606 297.165 199.788 298.612 201.094 297.306 C 201.695 296.705 202.020 295.377 201.814 294.356 C 201.454 292.566 201.415 292.565 200.720 294.332 "/></g>
<g fill="#D6D3CDFF" stroke="#D6D3CDFF">
<path d="M 272.437 284.205 L 269.500 287.410 273.285 284.205 C 275.366 282.442 276.688 281.000 276.222 281.000 C 275.756 281.000 274.052 282.442 272.437 284.205 "/></g>
<g fill="#D6D3CDFF" stroke="#D6D3CDFF">
<path d="M 285.089 268.250 C 284.615 269.513 284.629 270.646 285.122 270.833 C 285.605 271.017 286.000 270.267 286.000 269.167 C 286.000 268.067 286.563 266.940 287.250 266.662 C 288.229 266.267 288.222 266.141 287.218 266.079 C 286.513 266.036 285.555 267.013 285.089 268.250 "/></g>
<g fill="#D6D3CDFF" stroke="#D6D3CDFF">
<path d="M 446.024 264.250 L 446.795 267.500 446.898 264.250 C 446.954 262.463 446.607 261.000 446.126 261.000 C 445.646 261.000 445.600 262.463 446.024 264.250 "/></g>
</svg>
